PathFileType  4	(X/Y/Z) C:\Users\antoi\Documents\MyRepositories\mobilecap\ResultsAnalysis
DataRate	CameraRate	NumFrames	NumMarkers	Units	OrigDataRate	OrigDataStartFrame	OrigNumFrames
100.0	100.0	7	51	mm	100.0	502	1338
Frame#	Time	r_knee			r_shank_antsup			r_ankle			r_calc			r_5meta			r_toe			L_knee			L_shank_antsup			L_ankle			L_calc			L_5meta			L_toe			r_sh2			r_sh3			r_sh4			L_sh2			L_sh3			r_thigh1			r_thigh2			r_thigh3			r_thigh4			r_thigh5			L_thigh1			L_thigh2			L_thigh3			L_thigh4			r.ASIS			r.PSIS			L.ASIS			L.PSIS			C7			R_Shoulder			L_Shoulder			R_Sternum			L_Sternum			R_humerus			R_elbow_med			R_elbow_lat			R_forearm			R_wrist_radius			R_wrist_ulna			L_humerus			L_elbow_med			L_elbow_lat			L_forearm			L_wrist_radius			L_wrist_ulna			R_HJC			L_HJC			R_HJC_reg			L_HJC_reg			
		X1	Y1	Z1	X2	Y2	Z2	X3	Y3	Z3	X4	Y4	Z4	X5	Y5	Z5	X6	Y6	Z6	X7	Y7	Z7	X8	Y8	Z8	X9	Y9	Z9	X10	Y10	Z10	X11	Y11	Z11	X12	Y12	Z12	X13	Y13	Z13	X14	Y14	Z14	X15	Y15	Z15	X16	Y16	Z16	X17	Y17	Z17	X18	Y18	Z18	X19	Y19	Z19	X20	Y20	Z20	X21	Y21	Z21	X22	Y22	Z22	X23	Y23	Z23	X24	Y24	Z24	X25	Y25	Z25	X26	Y26	Z26	X27	Y27	Z27	X28	Y28	Z28	X29	Y29	Z29	X30	Y30	Z30	X31	Y31	Z31	X32	Y32	Z32	X33	Y33	Z33	X34	Y34	Z34	X35	Y35	Z35	X36	Y36	Z36	X37	Y37	Z37	X38	Y38	Z38	X39	Y39	Z39	X40	Y40	Z40	X41	Y41	Z41	X42	Y42	Z42	X43	Y43	Z43	X44	Y44	Z44	X45	Y45	Z45	X46	Y46	Z46	X47	Y47	Z47	X48	Y48	Z48	X49	Y49	Z49	X50	Y50	Z50	X51	Y51	Z51	

502	5.01000000	-162.60630	496.62288	-383.26077	-144.70828	399.03330	-384.41206	-274.62310	93.36140	-391.04974	-334.47116	59.15979	-442.56336	-160.34728	42.62969	-342.04080	-123.34889	69.49804	-395.30695	-136.91388	522.28425	-756.82131	-113.55236	430.56060	-765.56850	-247.40386	116.96221	-796.55275	-318.14028	82.90181	-741.61378	-158.64213	40.30143	-847.80317	-101.98844	60.79592	-799.59659	-171.27212	288.56879	-384.53397	-208.88040	412.74699	-346.61949	-241.11510	303.08248	-343.38477	-193.85875	467.45989	-786.56181	-228.29082	352.13970	-808.00885	-86.68986	775.92291	-363.79577	-86.48991	665.00267	-378.36648	-139.42991	635.70740	-349.06083	-199.86683	769.37192	-347.30646	-190.74624	653.84881	-363.06809	-69.80051	774.97611	-735.72674	-48.18909	636.15427	-739.70745	-174.86718	762.13425	-761.24819	-156.25847	629.21408	-756.10608	-63.42567	977.01779	-411.77797	-269.31417	984.76128	-495.63054	-66.12966	990.94780	-670.22946	-268.28754	987.91702	-585.57240	-271.82438	1451.16983	-526.75272	-190.80021	1423.44894	-358.78081	-193.86812	1430.34595	-684.97419	-135.35868	1394.57364	-504.04842	-138.96655	1397.53051	-549.71807	-157.39879	1291.21141	-306.32203	-228.17860	1095.08915	-371.15959	-235.44533	1105.04957	-304.58592	-198.53646	1036.21983	-267.79869	-158.86515	870.38625	-276.88893	-203.44451	872.06056	-255.03759	-165.92592	1292.45147	-751.67471	-203.79711	1090.88132	-695.37911	-225.25238	1105.55717	-770.79725	-189.72657	1053.42742	-813.99851	-139.89539	880.91572	-836.99981	-191.46461	885.76470	-846.05833	-131.74769	880.44923	-444.46845	-131.93754	891.34762	-633.71741	-126.73952	893.64610	-452.10096	-124.78751	899.63700	-622.81902	
503	5.02000000	-162.52860	496.72550	-383.38853	-144.63589	399.10228	-384.62263	-274.57741	93.40823	-391.04892	-334.44877	59.16428	-442.61015	-160.35544	42.63301	-342.03463	-123.32890	69.47702	-395.32466	-136.28251	522.17119	-756.94475	-113.07113	430.44335	-765.68584	-247.33201	116.95592	-796.47272	-318.09353	82.96451	-741.58268	-158.62909	40.25953	-847.81144	-101.94077	60.73770	-799.61677	-171.27083	288.58045	-384.64810	-208.75386	412.87812	-346.76723	-241.00484	303.12741	-343.42345	-193.35329	467.52384	-786.73904	-227.97206	352.33544	-808.07169	-86.05385	775.78232	-363.83891	-86.02180	664.90026	-378.35213	-139.21305	635.78713	-348.77223	-199.32857	769.37555	-348.13829	-190.33692	654.14614	-363.37620	-69.35149	775.01506	-736.32779	-47.67728	636.09821	-740.41444	-174.48692	761.85327	-760.89934	-155.82575	628.99546	-755.87757	-62.37359	977.08961	-411.72402	-268.55653	984.48696	-495.89299	-65.32594	991.07193	-670.70783	-266.93973	987.63517	-585.62385	-271.89098	1450.75008	-525.84053	-190.31789	1422.97880	-358.63209	-194.49402	1429.62597	-684.76524	-135.24527	1394.14360	-503.98956	-138.98335	1397.05588	-549.74233	-157.75273	1290.43321	-306.45992	-229.19205	1095.28800	-373.02729	-237.08840	1105.05778	-306.26605	-201.63072	1035.40323	-269.50295	-164.47899	868.79456	-278.90727	-209.26578	871.32557	-257.45813	-167.49582	1291.48353	-751.59045	-205.73939	1090.49340	-693.06792	-228.30707	1104.80845	-768.36128	-194.16271	1051.95161	-811.60577	-146.33569	878.87478	-834.55788	-197.31152	884.29113	-842.56455	-130.55368	880.41271	-444.66917	-130.78910	891.33118	-633.91690	-126.23449	893.48072	-452.55296	-123.15005	899.48361	-623.60844	
504	5.03000000	-162.42445	496.71271	-383.57605	-144.54865	399.16691	-384.72777	-274.54119	93.45728	-391.10330	-334.43393	59.11863	-442.66734	-160.35560	42.70633	-341.98447	-123.31561	69.47340	-395.35235	-135.83471	522.03211	-756.99539	-112.65346	430.28069	-765.81720	-247.27719	116.93448	-796.38780	-318.05061	82.99072	-741.54970	-158.62096	40.20025	-847.84026	-101.90077	60.69501	-799.65868	-171.24496	288.57822	-384.88194	-208.48913	412.87201	-347.02545	-240.78992	303.21714	-343.52314	-192.93729	467.56994	-786.88419	-227.90257	352.42992	-808.02360	-85.38514	775.56822	-363.98217	-85.59400	664.76374	-378.46464	-138.96001	636.04877	-348.36549	-198.69080	769.35667	-348.79666	-189.85164	654.29503	-363.92648	-69.02833	774.99766	-736.93479	-47.19759	636.05519	-740.98095	-174.70893	761.49898	-760.24119	-155.54043	628.80439	-755.61067	-61.56531	977.20951	-411.74531	-267.92473	984.31910	-496.04126	-64.54315	991.06389	-671.10800	-266.26110	987.28777	-585.67106	-271.91137	1450.34631	-525.25807	-189.80972	1422.64369	-358.35958	-194.95105	1429.15783	-684.61635	-135.12142	1393.79411	-504.00087	-139.01562	1396.68572	-549.70522	-157.99901	1289.94389	-306.25663	-230.10212	1095.68094	-374.51531	-238.38664	1105.11240	-307.64087	-204.21594	1034.83913	-270.98367	-169.56583	867.47732	-280.72327	-214.48699	870.87552	-259.47819	-169.15972	1290.57540	-751.34453	-208.23363	1090.83442	-691.19838	-231.10699	1104.09100	-765.75394	-198.26647	1050.72222	-809.41188	-152.43677	877.03107	-832.13848	-202.98848	883.04223	-839.25224	-129.64333	880.43339	-444.75988	-129.94537	891.21892	-634.01494	-125.46944	893.56152	-452.50143	-122.29185	899.23492	-623.81021	
505	5.04000000	-162.23177	496.63536	-383.77665	-144.45555	399.16994	-384.81161	-274.57696	93.49249	-391.17861	-334.42793	59.05939	-442.70756	-160.35003	42.73230	-341.98901	-123.31775	69.46076	-395.37988	-135.53864	521.95464	-757.08842	-112.26734	430.07622	-766.03320	-247.25465	116.91554	-796.35794	-318.01160	82.98420	-741.49847	-158.62216	40.15597	-847.86888	-101.87639	60.66645	-799.71022	-171.15321	288.58945	-385.15397	-208.18466	412.73171	-347.27744	-240.64251	303.25828	-343.75099	-192.63704	467.56021	-786.93091	-227.88056	352.45984	-807.95871	-84.78058	775.32130	-364.22813	-85.29542	664.66906	-378.56517	-138.69733	636.14423	-348.60320	-198.08172	769.49017	-349.06904	-189.55233	654.34981	-364.54194	-68.70277	774.99262	-737.60320	-46.79999	636.09856	-741.69973	-175.55997	761.22728	-759.87115	-155.35341	628.67726	-755.42982	-60.79651	977.27683	-411.86286	-267.27568	984.22359	-496.13096	-63.96310	990.99626	-671.32500	-266.16721	986.80825	-585.70707	-271.87876	1449.93512	-525.10179	-189.29487	1422.39889	-358.03504	-195.33986	1428.86682	-684.52350	-134.97243	1393.49481	-504.12435	-139.04707	1396.40256	-549.74425	-158.09630	1289.60925	-305.90833	-231.01729	1096.30290	-375.49749	-239.34303	1105.20884	-308.66840	-206.25483	1034.43438	-272.19539	-174.09418	866.50313	-282.33206	-219.04332	870.60676	-261.15805	-170.68778	1289.82211	-751.03902	-211.00111	1091.35572	-689.98725	-233.81322	1103.46405	-763.52957	-202.13641	1049.70384	-807.55772	-158.27062	875.43235	-829.84833	-209.37268	881.64822	-835.93594	-128.88681	880.43141	-444.80727	-129.36825	891.03806	-634.07213	-124.38657	893.96298	-451.86970	-122.26646	898.90818	-623.27879	
506	5.05000000	-161.94976	496.51325	-384.04643	-144.34784	399.04740	-385.04037	-274.63531	93.49066	-391.25197	-334.43475	59.01819	-442.76499	-160.34270	42.69685	-342.05681	-123.32678	69.44407	-395.39728	-135.32136	521.92418	-757.20357	-111.92355	429.87612	-766.30483	-247.24944	116.90290	-796.36751	-317.98876	82.96059	-741.46128	-158.63347	40.13153	-847.91494	-101.87266	60.64050	-799.74447	-171.03004	288.56943	-385.36570	-207.96914	412.59446	-347.42847	-240.58510	303.21741	-344.01026	-192.39520	467.50750	-786.90463	-227.80579	352.46996	-807.95424	-84.21897	775.17603	-364.45421	-84.97791	664.58640	-378.62517	-138.39265	635.84536	-349.54950	-197.57350	769.55115	-349.34750	-189.33280	654.13927	-365.08470	-68.42407	774.98809	-738.10398	-46.62164	636.20498	-742.58419	-176.03391	761.18212	-760.44343	-155.20739	628.61909	-755.36117	-60.01176	977.18325	-412.06768	-266.69813	984.15601	-496.27144	-63.43923	990.98434	-671.50007	-265.97434	986.54956	-585.74293	-271.85439	1449.53699	-524.97160	-188.79105	1422.18270	-357.87317	-195.73303	1428.58593	-684.43909	-134.83818	1393.21663	-504.26372	-139.06958	1396.15492	-549.85409	-157.98117	1289.27681	-305.78996	-231.97898	1097.08499	-375.97625	-239.93769	1105.36017	-309.34398	-207.73641	1034.12524	-273.16484	-178.07041	865.77758	-283.77575	-222.89586	870.45530	-262.56247	-171.92255	1289.27130	-750.79631	-212.81745	1091.37101	-688.56224	-236.63941	1102.88150	-761.50476	-205.79882	1048.79716	-805.80579	-163.70392	874.06406	-827.64501	-215.54888	880.34465	-832.59683	-128.22159	880.33837	-444.98384	-128.87842	890.95511	-634.24769	-123.49025	894.15799	-451.61153	-122.10284	898.74408	-623.02836	
507	5.06000000	-161.62754	496.36870	-384.38626	-144.19738	398.84889	-385.35588	-274.61431	93.44090	-391.34857	-334.45146	58.98973	-442.83827	-160.33863	42.73706	-342.04869	-123.32492	69.44962	-395.40789	-135.14701	521.87645	-757.25652	-111.62653	429.73445	-766.57007	-247.24956	116.89261	-796.37651	-317.98288	82.95880	-741.47409	-158.65833	40.12444	-847.98583	-101.89886	60.61940	-799.74876	-170.90734	288.46049	-385.49946	-207.82475	412.50537	-347.56425	-240.55196	303.16567	-344.16389	-192.09109	467.45545	-786.86817	-227.68416	352.47323	-807.99814	-83.63737	775.10911	-364.59285	-84.53842	664.39353	-378.87579	-137.99823	635.44978	-350.45125	-197.32403	769.42556	-350.03805	-188.99586	653.96501	-365.33858	-68.27770	774.91247	-738.33614	-46.62759	636.31687	-743.30187	-175.50057	761.30240	-761.47791	-155.06972	628.60948	-755.36495	-59.35513	976.93925	-412.32398	-266.27417	984.09473	-496.42737	-63.00091	991.05023	-671.63194	-265.52804	986.58234	-585.76023	-271.85389	1449.18958	-524.63616	-188.32228	1422.02857	-357.81615	-196.06639	1428.34849	-684.43710	-134.74609	1392.95790	-504.34452	-139.09064	1395.92458	-549.88249	-157.65598	1288.99596	-305.92667	-232.89253	1097.90753	-376.22737	-240.21264	1105.57190	-309.69121	-208.65686	1033.97217	-273.90690	-181.43246	865.20020	-285.03829	-225.99829	870.34326	-263.77839	-172.98216	1288.86005	-750.55481	-214.06819	1091.00153	-686.35103	-239.45179	1102.31320	-759.22858	-209.19188	1048.03276	-803.95846	-168.70345	872.86927	-825.28630	-220.61970	879.49580	-829.46271	-127.70810	880.15793	-445.27217	-128.47903	891.00249	-634.52258	-123.02948	894.03003	-451.95363	-121.59833	898.80159	-623.29536	
508	5.07000000	-161.31838	496.25259	-384.62911	-144.01601	398.74840	-385.52472	-274.56221	93.37385	-391.44855	-334.46330	58.94846	-442.86065	-160.33963	42.84290	-341.95720	-123.31680	69.47192	-395.41416	-134.93993	521.85931	-757.35042	-111.33517	429.64376	-766.75072	-247.25691	116.89870	-796.40981	-317.99382	83.00741	-741.51847	-158.68472	40.12648	-848.03458	-101.93834	60.60843	-799.73996	-170.79180	288.31772	-385.59314	-207.66821	412.37466	-347.78743	-240.51303	303.16236	-344.23319	-191.69691	467.45579	-786.92663	-227.50408	352.49378	-808.05831	-83.14351	774.98743	-364.66911	-84.04150	664.11722	-379.35559	-137.57719	635.41499	-350.62635	-197.40502	769.09378	-351.03566	-188.62074	654.26381	-365.21270	-68.16722	774.84348	-738.56719	-46.51098	636.36747	-743.70588	-174.74873	761.44183	-762.05146	-154.91969	628.61159	-755.36807	-58.89560	976.71547	-412.48092	-265.90122	984.02152	-496.46529	-62.76403	991.11445	-671.64899	-265.15447	986.64735	-585.77704	-271.85368	1448.91943	-524.17142	-187.91772	1422.01118	-357.64949	-196.28569	1428.22888	-684.52878	-134.67139	1392.74289	-504.39039	-139.12245	1395.71891	-549.79030	-157.23407	1288.84709	-306.07098	-233.72669	1098.56639	-376.43290	-240.24421	1105.88678	-309.68588	-209.03258	1033.91146	-274.46170	-184.07530	864.76635	-286.09089	-228.29605	870.24402	-264.76349	-174.00369	1288.52389	-750.26925	-215.62612	1090.84996	-684.25151	-241.86581	1101.98151	-757.07821	-212.37508	1047.46195	-801.92763	-173.27382	871.88879	-822.93527	-225.08197	878.95621	-826.64562	-127.33538	879.98982	-445.47092	-128.20064	891.05717	-634.70810	-122.68357	893.85489	-452.21957	-121.25203	898.88956	-623.47277	
